PathFileType	4	(X/Y/Z)	/Users/itak/Documents/Research/Walk-IL/dataset/trc/00350_00011.trc
DataRate	CameraRate	NumFrames	NumMarkers	Units	OrigDataRate	OrigDataStartFrame	OrigNumFrames
100.000000	100.000000	4	53	mm	100.000000	91	730
Frame#	Time	RPSI			LPSI			STRN			T10			C7			CLAV			RBAK			LBAK			LSHO			LUPA			LAEL			LAOL			LWTS			LWPS			LFRA			LIFD			LHPS			LHTS			RSHO			RUPA			RAEL			RAOL			RWTS			RWPS			RFRA			RIFD			RHTS			RHPS			RBHD			LFHD			RFHD			LBHD			LHIP			RHIP			RASI			LASI			LKNE			LTHI			LANK			LTIP			LTOE			LMT1			LMT5			LHEE			RKNE			RANK			RTIP			RTOE			RMT1			RMT5			RHEE			L3			RTHI			
		X1	Y1	Z1	X2	Y2	Z2	X3	Y3	Z3	X4	Y4	Z4	X5	Y5	Z5	X6	Y6	Z6	X7	Y7	Z7	X8	Y8	Z8	X9	Y9	Z9	X10	Y10	Z10	X11	Y11	Z11	X12	Y12	Z12	X13	Y13	Z13	X14	Y14	Z14	X15	Y15	Z15	X16	Y16	Z16	X17	Y17	Z17	X18	Y18	Z18	X19	Y19	Z19	X20	Y20	Z20	X21	Y21	Z21	X22	Y22	Z22	X23	Y23	Z23	X24	Y24	Z24	X25	Y25	Z25	X26	Y26	Z26	X27	Y27	Z27	X28	Y28	Z28	X29	Y29	Z29	X30	Y30	Z30	X31	Y31	Z31	X32	Y32	Z32	X33	Y33	Z33	X34	Y34	Z34	X35	Y35	Z35	X36	Y36	Z36	X37	Y37	Z37	X38	Y38	Z38	X39	Y39	Z39	X40	Y40	Z40	X41	Y41	Z41	X42	Y42	Z42	X43	Y43	Z43	X44	Y44	Z44	X45	Y45	Z45	X46	Y46	Z46	X47	Y47	Z47	X48	Y48	Z48	X49	Y49	Z49	X50	Y50	Z50	X51	Y51	Z51	X52	Y52	Z52	X53	Y53	Z53	

92	0.91	432.1452026367188	956.696044921875	1005.803344726562	417.8493347167969	967.3359375	1134.670166015625	175.3633880615234	1198.079223632812	1046.092651367188	415.9417419433594	1152.273071289062	1096.692504882812	347.7819213867188	1394.019653320312	1103.372192382812	205.6684417724609	1326.198608398438	1056.804809570312	428.6162109375	1262.56640625	1051.489868164062	333.1224060058594	1356.630737304688	1204.22607421875	234.60400390625	1370.376831054688	1235.159545898438	234.1167755126953	1250.580932617188	1305.246459960938	209.3978424072266	1045.890502929688	1313.784301757812	286.9552307128906	1031.831665039062	1280.004150390625	118.3684768676758	809.8946533203125	1238.961547851562	142.1686401367188	794.4817504882812	1302.000122070312	188.9822082519531	941.681884765625	1314.667724609375	104.5016326904297	650.9535522460938	1226.18994140625	141.5195922851562	724.1023559570312	1293.347534179688	95.89148712158203	734.93017578125	1246.649536132812	338.7008972167969	1377.767333984375	930.45166015625	374.917236328125	1315.390869140625	874.3876953125	417.2944030761719	1051.326904296875	842.5687866210938	428.959228515625	1044.552001953125	936.634033203125	303.6216735839844	822.1473999023438	846.0908203125	361.7026672363281	805.8839111328125	798.2686157226562	402.116455078125	981.630859375	825.41845703125	297.2581176757812	648.9899291992188	844.4403686523438	280.3186340332031	717.5077514648438	826.039794921875	346.8282775878906	720.52978515625	797.96435546875	319.2872314453125	1591.989135742188	1005.527954101562	115.6279678344727	1593.657348632812	1049.566162109375	162.9575653076172	1590.077392578125	960.447509765625	276.7565612792969	1594.90185546875	1143.658569335938	325.5674133300781	912.7236328125	1232.581298828125	356.0050048828125	909.8711547851562	893.2492065429688	250.3683776855469	940.793701171875	931.14990234375	204.1276397705078	936.1998291015625	1165.815551757812	308.7678833007812	454.4412536621094	1215.624633789062	295.0724182128906	592.5743408203125	1223.267211914062	454.0841369628906	45.75069427490234	1191.928466796875	379.4998779296875	240.97265625	1215.656494140625	242.6694030761719	44.17832946777344	1151.933959960938	307.251220703125	31.24266052246094	1102.645263671875	328.4410095214844	43.02653121948242	1215.263916015625	481.4495239257812	39.65494537353516	1120.760620117188	111.581672668457	510.1651916503906	858.44287109375	209.4560394287109	100.8798294067383	930.7520141601562	107.7943725585938	384.3002319335938	872.9164428710938	15.1976318359375	63.17549133300781	927.79541015625	57.05021286010742	68.50902557373047	983.3450927734375	122.9591979980469	66.86331939697266	886.5293579101562	244.3441162109375	114.5183410644531	988.748046875	426.2101745605469	1034.1162109375	1076.4228515625	211.9326477050781	747.8436889648438	864.4183959960938	
93	0.92	427.8678283691406	956.8402099609375	1004.598083496094	413.6905212402344	967.3446044921875	1133.455810546875	171.2665710449219	1197.452758789062	1044.96533203125	411.5767517089844	1152.030029296875	1095.67138671875	343.4119567871094	1393.650756835938	1102.470336914062	201.4224548339844	1325.638671875	1055.640747070312	424.3153991699219	1262.132202148438	1050.746948242188	328.5638732910156	1356.250122070312	1203.328369140625	229.9907379150391	1369.922973632812	1234.047973632812	229.277099609375	1250.0888671875	1304.131469726562	204.1831970214844	1045.356079101562	1312.435180664062	282.2059936523438	1031.0673828125	1279.219970703125	112.3313293457031	810.3529663085938	1235.663940429688	135.7408294677734	794.3157958984375	1298.811767578125	183.3292999267578	941.1390991210938	1312.728271484375	97.46907806396484	651.6231079101562	1221.595092773438	134.497802734375	723.8436279296875	1289.380493164062	88.88496398925781	736.2147216796875	1242.659912109375	334.6367797851562	1377.260009765625	929.52490234375	371.1098937988281	1314.97216796875	873.54150390625	415.1988830566406	1051.204345703125	842.2297973632812	426.2218627929688	1044.573608398438	936.4181518554688	303.5767211914062	820.9354248046875	844.9915161132812	362.2621154785156	805.2162475585938	797.7111206054688	400.8437805175781	981.3850708007812	825.0424194335938	298.8703918457031	647.6924438476562	843.31787109375	281.4226379394531	716.0415649414062	824.573974609375	348.2839965820312	719.7825927734375	797.2654418945312	315.5267639160156	1591.427978515625	1004.670959472656	111.5531005859375	1593.304321289062	1047.530517578125	159.4197845458984	1589.651245117188	958.7274169921875	272.2000122070312	1594.461669921875	1142.563842773438	321.2267761230469	912.0703735351562	1231.614135742188	351.7864990234375	909.7008056640625	892.1671142578125	246.1997528076172	940.3587646484375	930.1148681640625	199.7262420654297	935.5504760742188	1164.975341796875	307.4375305175781	454.1726989746094	1214.970458984375	292.8258056640625	592.2723999023438	1222.545166015625	454.0225219726562	45.86698913574219	1191.801513671875	378.9486083984375	240.8801116943359	1215.320190429688	242.6703338623047	44.16684341430664	1151.903076171875	307.2965393066406	31.08128547668457	1102.515747070312	328.4306335449219	43.04912948608398	1215.229614257812	481.4298400878906	39.69230270385742	1120.651000976562	108.8855209350586	508.6378173828125	857.1593627929688	192.5281066894531	96.16780090332031	928.0822143554688	101.3904266357422	383.1069641113281	870.8975830078125	-2.63298511505127	63.82023620605469	923.539794921875	38.86221694946289	67.87995910644531	979.3758544921875	105.4475708007812	64.58453369140625	883.1385498046875	227.2411956787109	108.5488204956055	986.498046875	421.9093627929688	1034.004150390625	1075.248779296875	208.6834869384766	747.512451171875	863.189697265625	
94	0.93	423.4852600097656	956.8685913085938	1003.336547851562	409.3688659667969	967.244140625	1132.193603515625	167.0353240966797	1196.735717773438	1043.730590820312	407.096435546875	1151.659301757812	1094.475952148438	338.9536743164062	1393.179565429688	1101.41552734375	197.0727844238281	1324.993530273438	1054.37939453125	419.903076171875	1261.597900390625	1049.814819335938	323.9517211914062	1355.760009765625	1202.28173828125	225.3433837890625	1369.34716796875	1232.823974609375	224.4219665527344	1249.470825195312	1302.872314453125	198.8784027099609	1044.703125	1310.952758789062	277.4175720214844	1030.190063476562	1278.310302734375	106.2412567138672	810.7305908203125	1232.212280273438	129.2080688476562	794.10009765625	1295.437377929688	177.5749053955078	940.4909057617188	1310.637939453125	90.44336700439453	652.2557983398438	1216.853393554688	127.484977722168	723.586181640625	1285.354248046875	81.93711090087891	737.3088989257812	1238.692749023438	330.4422302246094	1376.672241210938	928.45166015625	367.1524963378906	1314.467163085938	872.5348510742188	412.8954467773438	1050.971435546875	841.8030395507812	423.2257995605469	1044.498413085938	936.1188354492188	303.3182067871094	819.6510009765625	843.6740112304688	362.7084350585938	804.46728515625	797.07177734375	399.3806457519531	981.0407104492188	824.5796508789062	300.3238220214844	646.3590698242188	841.9874877929688	282.4645080566406	714.6533203125	822.8020629882812	349.6249084472656	718.97607421875	796.4437255859375	311.6658325195312	1590.789672851562	1003.68896484375	107.3813323974609	1592.866943359375	1045.429321289062	155.7841949462891	1589.162475585938	956.9190063476562	267.5791015625	1593.925170898438	1141.3720703125	316.7843322753906	911.3372192382812	1230.458251953125	347.4808044433594	909.4259033203125	890.9617919921875	241.9308166503906	939.7607421875	928.9520263671875	195.1935729980469	934.8030395507812	1164.003051757812	305.9317321777344	453.8361206054688	1214.272094726562	290.379638671875	591.88720703125	1221.738891601562	453.9602966308594	45.99224853515625	1191.662719726562	378.3038940429688	240.7735595703125	1214.9384765625	242.6795501708984	44.16206741333008	1151.8603515625	307.3230285644531	30.89226531982422	1102.396240234375	328.4147644042969	43.07136917114258	1215.173950195312	481.4285583496094	39.72248458862305	1120.528198242188	106.4524154663086	506.7531127929688	856.0302124023438	175.3059234619141	91.49082946777344	924.9146118164062	95.15927886962891	381.7000427246094	868.8358764648438	-20.57731246948242	64.75250244140625	918.65234375	20.49061012268066	67.39826202392578	974.7988891601562	87.74755096435547	62.53890609741211	879.1610107421875	209.802978515625	102.4560089111328	983.7971801757812	417.4845581054688	1033.781127929688	1073.985473632812	205.4648895263672	746.826171875	861.9388427734375	
95	0.9400000000000001	419.0011901855469	956.7745361328125	1002.0302734375	404.8677368164062	967.0315551757812	1130.886840820312	162.6817626953125	1195.942626953125	1042.390502929688	402.4905090332031	1151.155151367188	1093.117797851562	334.4061279296875	1392.60546875	1100.207641601562	192.6200561523438	1324.2744140625	1053.01025390625	415.3917541503906	1260.965209960938	1048.702026367188	319.2846069335938	1355.16748046875	1201.078247070312	220.6522979736328	1368.662353515625	1231.476318359375	219.5443420410156	1248.744262695312	1301.47021484375	193.4884033203125	1043.948120117188	1309.319091796875	272.5650939941406	1029.219970703125	1277.23291015625	100.1110916137695	811.0187377929688	1228.648193359375	122.5881042480469	793.831298828125	1291.90283203125	171.7362060546875	939.7583618164062	1308.396240234375	83.43310546875	652.8297119140625	1211.998046875	120.4909439086914	723.3109741210938	1281.270263671875	75.10554504394531	738.1578369140625	1234.79248046875	326.13037109375	1376.007446289062	927.2307739257812	363.0718688964844	1313.879028320312	871.379638671875	410.3731384277344	1050.627563476562	841.2846069335938	419.9672546386719	1044.309204101562	935.71923828125	302.8254699707031	818.288330078125	842.1526489257812	362.9886779785156	803.6515502929688	796.32666015625	397.6825866699219	980.6062622070312	824.0172729492188	301.6380615234375	644.9935913085938	840.4943237304688	283.4469604492188	713.36767578125	820.7822875976562	350.8022155761719	718.1095581054688	795.498779296875	307.7054748535156	1590.085693359375	1002.576416015625	103.111572265625	1592.34521484375	1043.259521484375	152.0500793457031	1588.600463867188	955.0112915039062	262.8867492675781	1593.296752929688	1140.07470703125	312.2322387695312	910.5426635742188	1229.134521484375	343.1041870117188	909.0349731445312	889.6510009765625	237.5608673095703	939.004638671875	927.6503295898438	190.5223388671875	933.96435546875	1162.877685546875	304.2480773925781	453.4368896484375	1213.530517578125	287.7518615722656	591.4155883789062	1220.831420898438	453.9015808105469	46.12131118774414	1191.512573242188	377.5630187988281	240.6502685546875	1214.50390625	242.6984405517578	44.16361618041992	1151.801147460938	307.33251953125	30.68671226501465	1102.288330078125	328.3998718261719	43.10334777832031	1215.09765625	481.4442443847656	39.74385452270508	1120.396484375	104.252685546875	504.5504760742188	855.0623779296875	157.8804931640625	86.93660736083984	921.278564453125	89.09563446044922	380.1071166992188	866.7565307617188	-38.54380416870117	66.08782196044922	913.1676635742188	2.013184070587158	67.18331909179688	969.6444702148438	69.96088409423828	60.83807373046875	874.6255493164062	192.1071624755859	96.3463134765625	980.6526489257812	412.9492797851562	1033.44580078125	1072.644165039062	202.2604217529297	745.785400390625	860.6575317382812	
